<?xml version="1.0" standalone="no"?><!DOCTYPE svg PUBLIC "-//W3C//DTD SVG 1.1//EN" "http://www.w3.org/Graphics/SVG/1.1/DTD/svg11.dtd"><svg t="1772258905975" class="icon" viewBox="0 0 1024 1024" version="1.1" xmlns="http://www.w3.org/2000/svg" p-id="1641" xmlns:xlink="http://www.w3.org/1999/xlink" width="200" height="200"><path d="M849.454545 987.927273H174.545455c-62.836364 0-112.872727-51.2-112.872728-112.872728V150.109091c0-62.836364 51.2-112.872727 112.872728-112.872727h91.927272c16.290909 0 29.090909 12.8 29.090909 29.090909s-12.8 29.090909-29.090909 29.090909H174.545455c-30.254545 0-54.690909 24.436364-54.69091 54.690909v724.945454c0 30.254545 24.436364 54.690909 54.69091 54.69091h674.90909c30.254545 0 54.690909-24.436364 54.69091-54.69091V150.109091c0-30.254545-24.436364-54.690909-54.69091-54.690909h-93.090909c-16.290909 0-29.090909-12.8-29.090909-29.090909s12.8-29.090909 29.090909-29.090909h93.090909c62.836364 0 112.872727 51.2 112.872728 112.872727v724.945454c0 61.672727-50.036364 112.872727-112.872728 112.872728z" fill="#231815" p-id="1642"></path><path d="M613.236364 111.709091H410.763636c-25.6 0-46.545455-20.945455-46.545454-46.545455s20.945455-46.545455 46.545454-46.545454h202.472728c25.6 0 46.545455 20.945455 46.545454 46.545454s-20.945455 46.545455-46.545454 46.545455zM721.454545 367.709091H302.545455c-16.290909 0-29.090909-12.8-29.09091-29.090909s12.8-29.090909 29.09091-29.090909h418.90909c16.290909 0 29.090909 12.8 29.09091 29.090909s-12.8 29.090909-29.09091 29.090909zM721.454545 545.745455H302.545455c-16.290909 0-29.090909-12.8-29.09091-29.09091s12.8-29.090909 29.09091-29.090909h418.90909c16.290909 0 29.090909 12.8 29.09091 29.090909s-12.8 29.090909-29.09091 29.09091zM721.454545 713.309091H302.545455c-16.290909 0-29.090909-12.8-29.09091-29.090909s12.8-29.090909 29.09091-29.090909h418.90909c16.290909 0 29.090909 12.8 29.09091 29.090909s-12.8 29.090909-29.09091 29.090909z" fill="#231815" p-id="1643"></path></svg>