<?xml version="1.0" standalone="no"?><!DOCTYPE svg PUBLIC "-//W3C//DTD SVG 1.1//EN" "http://www.w3.org/Graphics/SVG/1.1/DTD/svg11.dtd"><svg t="1772259181617" class="icon" viewBox="0 0 1102 1024" version="1.1" xmlns="http://www.w3.org/2000/svg" p-id="4185" xmlns:xlink="http://www.w3.org/1999/xlink" width="215.234375" height="200"><path d="M153.15597332 364.76904966v470.430984a93.245511 93.245511 0 0 0 93.245511 93.234815h635.765822a93.245511 93.245511 0 0 0 93.245511-93.234815v-100.657663a33.905514 33.905514 0 1 1 67.800332 0v100.657663a161.045843 161.045843 0 0 1-161.045843 161.045843H246.40148432A161.056539 161.056539 0 0 1 85.33424932 835.20003366V330.86353566a33.552554 33.552554 0 0 1 3.561684-15.134481l0.342263-0.93053L173.03936432 115.39773766A118.647907 118.647907 0 0 1 282.42475632 42.66666666H846.13333832a118.658603 118.658603 0 0 1 109.385392 72.731071l83.747689 199.400787a36.033967 36.033967 0 0 1-19.252342 47.168239c-6.781103 2.331673-6.781103 2.331673-13.990036 2.802286z m805.079476-67.821724l-65.244049-155.32362a50.858271 50.858271 0 0 0-46.858062-31.167403H282.38197332a50.858271 50.858271 0 0 0-46.879454 31.146012l-65.244049 155.323619z m0 0" p-id="4186"></path><path d="M742.05303732 593.62592066l-71.372711-73.747167a33.909792 33.909792 0 1 1 48.729817-47.168239l102.443853 105.887883a55.104482 55.104482 0 0 1 0.29948 76.335537l-102.561505 107.620594a33.905514 33.905514 0 0 1-49.072082-46.783192l51.746018-54.334388H331.16526932a33.905514 33.905514 0 1 1 0-67.811028z m0 0" p-id="4187"></path></svg>